REM DIRINDEX 1\2\3,1\2\4,1\2\5,1\2\6
REM DIRNAME cjc157,folder01,folder02,folder03,folder04,folder05
TITLE ""
FILE "068 068.mp3" MP3
  TRACK 01 AUDIO
    TITLE "0:"
    INDEX 01 00:00:00
  TRACK 02 AUDIO
    TITLE "3:cjc157_2531"
    INDEX 01 00:00:11
  TRACK 03 AUDIO
    TITLE "0:"
    INDEX 01 00:01:21
  TRACK 04 AUDIO
    TITLE "4:cjc157_2532"
    INDEX 01 00:01:62
  TRACK 05 AUDIO
    TITLE "0:"
    INDEX 01 00:03:04
  TRACK 06 AUDIO
    TITLE "5:cjc157_2533"
    INDEX 01 00:03:49
  TRACK 07 AUDIO
    TITLE "0:"
    INDEX 01 00:06:47
  TRACK 08 AUDIO
    TITLE "5:cjc157_2534"
    INDEX 01 00:07:19
  TRACK 09 AUDIO
    TITLE "0:"
    INDEX 01 00:10:19
  TRACK 10 AUDIO
    TITLE "3:cjc157_2535"
    INDEX 01 00:10:63
  TRACK 11 AUDIO
    TITLE "0:"
    INDEX 01 00:11:74
  TRACK 12 AUDIO
    TITLE "4:cjc157_2536"
    INDEX 01 00:12:44
  TRACK 13 AUDIO
    TITLE "0:"
    INDEX 01 00:13:65
  TRACK 14 AUDIO
    TITLE "5:cjc157_2537"
    INDEX 01 00:14:37
  TRACK 15 AUDIO
    TITLE "0:"
    INDEX 01 00:17:70
  TRACK 16 AUDIO
    TITLE "3:cjc157_2538"
    INDEX 01 00:18:41
  TRACK 17 AUDIO
    TITLE "0:"
    INDEX 01 00:19:73
  TRACK 18 AUDIO
    TITLE "4:cjc157_2539"
    INDEX 01 00:20:45
  TRACK 19 AUDIO
    TITLE "0:"
    INDEX 01 00:21:45
  TRACK 20 AUDIO
    TITLE "5:cjc157_2540"
    INDEX 01 00:22:17
  TRACK 21 AUDIO
    TITLE "0:"
    INDEX 01 00:24:18
  TRACK 22 AUDIO
    TITLE "5:cjc157_2541"
    INDEX 01 00:24:63
  TRACK 23 AUDIO
    TITLE "0:"
    INDEX 01 00:26:54
  TRACK 24 AUDIO
    TITLE "5:cjc157_2542"
    INDEX 01 00:27:20
  TRACK 25 AUDIO
    TITLE "0:"
    INDEX 01 00:29:23
  TRACK 26 AUDIO
    TITLE "3:cjc157_2543"
    INDEX 01 00:29:68
  TRACK 27 AUDIO
    TITLE "0:"
    INDEX 01 00:31:06
  TRACK 28 AUDIO
    TITLE "4:cjc157_2544"
    INDEX 01 00:31:53
  TRACK 29 AUDIO
    TITLE "0:"
    INDEX 01 00:32:64
  TRACK 30 AUDIO
    TITLE "5:cjc157_2545"
    INDEX 01 00:33:32
  TRACK 31 AUDIO
    TITLE "0:"
    INDEX 01 00:36:09
  TRACK 32 AUDIO
    TITLE "3:cjc157_2546"
    INDEX 01 00:36:54
  TRACK 33 AUDIO
    TITLE "0:"
    INDEX 01 00:38:04
  TRACK 34 AUDIO
    TITLE "4:cjc157_2547"
    INDEX 01 00:38:53
  TRACK 35 AUDIO
    TITLE "0:"
    INDEX 01 00:39:74
  TRACK 36 AUDIO
    TITLE "5:cjc157_2548"
    INDEX 01 00:40:42
  TRACK 37 AUDIO
    TITLE "0:"
    INDEX 01 00:42:37
  TRACK 38 AUDIO
    TITLE "5:cjc157_2549"
    INDEX 01 00:43:05
  TRACK 39 AUDIO
    TITLE "0:"
    INDEX 01 00:44:60
  TRACK 40 AUDIO
    TITLE "3:cjc157_2550"
    INDEX 01 00:45:32
  TRACK 41 AUDIO
    TITLE "0:"
    INDEX 01 00:46:49
  TRACK 42 AUDIO
    TITLE "4:cjc157_2551"
    INDEX 01 00:47:23
  TRACK 43 AUDIO
    TITLE "0:"
    INDEX 01 00:48:24
  TRACK 44 AUDIO
    TITLE "5:cjc157_2552"
    INDEX 01 00:48:69
  TRACK 45 AUDIO
    TITLE "0:"
    INDEX 01 00:50:42
  TRACK 46 AUDIO
    TITLE "5:cjc157_2553"
    INDEX 01 00:51:15
  TRACK 47 AUDIO
    TITLE "0:"
    INDEX 01 00:52:71
  TRACK 48 AUDIO
    TITLE "5:cjc157_2554"
    INDEX 01 00:53:49
  TRACK 49 AUDIO
    TITLE "0:"
    INDEX 01 00:55:48
  TRACK 50 AUDIO
    TITLE "3:cjc157_2555"
    INDEX 01 00:56:18
  TRACK 51 AUDIO
    TITLE "0:"
    INDEX 01 00:57:31
  TRACK 52 AUDIO
    TITLE "4:cjc157_2556"
    INDEX 01 00:58:01
  TRACK 53 AUDIO
    TITLE "0:"
    INDEX 01 00:59:12
  TRACK 54 AUDIO
    TITLE "5:cjc157_2557"
    INDEX 01 00:59:53
  TRACK 55 AUDIO
    TITLE "0:"
    INDEX 01 01:01:46
  TRACK 56 AUDIO
    TITLE "5:cjc157_2558"
    INDEX 01 01:02:20
  TRACK 57 AUDIO
    TITLE "0:"
    INDEX 01 01:04:17
  TRACK 58 AUDIO
    TITLE "5:cjc157_2559"
    INDEX 01 01:04:66
  TRACK 59 AUDIO
    TITLE "0:"
    INDEX 01 01:06:20
  TRACK 60 AUDIO
    TITLE "3:cjc157_2560"
    INDEX 01 01:06:69
  TRACK 61 AUDIO
    TITLE "0:"
    INDEX 01 01:08:05
  TRACK 62 AUDIO
    TITLE "4:cjc157_2561"
    INDEX 01 01:08:54
  TRACK 63 AUDIO
    TITLE "0:"
    INDEX 01 01:09:54
  TRACK 64 AUDIO
    TITLE "5:cjc157_2562"
    INDEX 01 01:10:26
  TRACK 65 AUDIO
    TITLE "0:"
    INDEX 01 01:11:74
  TRACK 66 AUDIO
    TITLE "5:cjc157_2563"
    INDEX 01 01:12:46
  TRACK 67 AUDIO
    TITLE "0:"
    INDEX 01 01:14:41
  TRACK 68 AUDIO
    TITLE "3:cjc157_2564"
    INDEX 01 01:15:13
  TRACK 69 AUDIO
    TITLE "0:"
    INDEX 01 01:16:20
  TRACK 70 AUDIO
    TITLE "4:cjc157_2565"
    INDEX 01 01:16:65
  TRACK 71 AUDIO
    TITLE "0:"
    INDEX 01 01:18:17
  TRACK 72 AUDIO
    TITLE "5:cjc157_2566"
    INDEX 01 01:18:64
  TRACK 73 AUDIO
    TITLE "0:"
    INDEX 01 01:22:21
  TRACK 74 AUDIO
    TITLE "5:cjc157_2567"
    INDEX 01 01:22:62
  TRACK 75 AUDIO
    TITLE "0:"
    INDEX 01 01:24:57
  TRACK 76 AUDIO
    TITLE "3:cjc157_2568"
    INDEX 01 01:25:25
  TRACK 77 AUDIO
    TITLE "0:"
    INDEX 01 01:26:56
  TRACK 78 AUDIO
    TITLE "4:cjc157_2569"
    INDEX 01 01:27:28
  TRACK 79 AUDIO
    TITLE "0:"
    INDEX 01 01:28:41
  TRACK 80 AUDIO
    TITLE "5:cjc157_2570"
    INDEX 01 01:29:13
  TRACK 81 AUDIO
    TITLE "0:"
    INDEX 01 01:31:20
  TRACK 82 AUDIO
    TITLE "5:cjc157_2571"
    INDEX 01 01:31:63
  TRACK 83 AUDIO
    TITLE "0:"
    INDEX 01 01:34:28
  TRACK 84 AUDIO
    TITLE "5:cjc157_2572"
    INDEX 01 01:34:73
  TRACK 85 AUDIO
    TITLE "0:"
    INDEX 01 01:37:15
  TRACK 86 AUDIO
    TITLE "5:cjc157_2573"
    INDEX 01 01:37:56
  TRACK 87 AUDIO
    TITLE "0:"
    INDEX 01 01:39:27
